HIERARCHY
ROOT hip
{
  OFFSET 0.00112043 5.09927 -9.65472
  CHANNELS 6 Xposition Yposition Zposition Zrotation Xrotation Yrotation
  JOINT abdomen
  {
    OFFSET 0 -1.186 -1.5018
    CHANNELS 3 Zrotation Xrotation Yrotation
    JOINT abdomen2
    {
      OFFSET 0 9.964 0.2134
      CHANNELS 3 Zrotation Xrotation Yrotation
      JOINT chest
      {
        OFFSET 0 13.134 -3.2573
        CHANNELS 3 Zrotation Xrotation Yrotation
        JOINT neck
        {
          OFFSET 0 20.686 -1.6905
          CHANNELS 3 Zrotation Xrotation Yrotation
          JOINT head
          {
            OFFSET 0 7.238 -0.1237
            CHANNELS 3 Zrotation Xrotation Yrotation
            End Site
            {
              OFFSET 0 0 0
            }
          }
        }
        JOINT lCollar
        {
          OFFSET 1.7069 20.075 5.0056
          CHANNELS 3 Zrotation Xrotation Yrotation
          JOINT lShldr
          {
            OFFSET 13.6458 -0.047 -4.849
            CHANNELS 3 Zrotation Xrotation Yrotation
            JOINT lForeArm
            {
              OFFSET 28.3255 -0.9759 2.2888
              CHANNELS 3 Zrotation Xrotation Yrotation
              JOINT lHand
              {
                OFFSET 22.1583 -0.53 10.8316
                CHANNELS 3 Zrotation Xrotation Yrotation
                JOINT lThumb1
                {
                  OFFSET 0.786 0.112 2.5817
                  CHANNELS 3 Zrotation Xrotation Yrotation
                  JOINT lThumb2
                  {
                    OFFSET 0.3601 -0.878 4.2331
                    CHANNELS 3 Zrotation Xrotation Yrotation
                    JOINT lThumb2_End
                    {
                      OFFSET 1.8127 -1.216 2.2227
                      CHANNELS 3 Zrotation Xrotation Yrotation
                      End Site
                      {
                        OFFSET 0.0181 -0.0122 0.0222
                      }
                    }
                  }
                }
                JOINT lCarpal1
                {
                  OFFSET 0.9571 1.114 1.7695
                  CHANNELS 3 Zrotation Xrotation Yrotation
                  JOINT lIndex1
                  {
                    OFFSET 4.1246 0.487 4.1451
                    CHANNELS 3 Zrotation Xrotation Yrotation
                    JOINT lIndex2
                    {
                      OFFSET 3.4052 -1.454 2.7682
                      CHANNELS 3 Zrotation Xrotation Yrotation
                      JOINT lIndex2_End
                      {
                        OFFSET 1.4531 -1.795 1.2713
                        CHANNELS 3 Zrotation Xrotation Yrotation
                        End Site
                        {
                          OFFSET 0.0145 -0.0179 0.0127
                        }
                      }
                    }
                  }
                  JOINT lMid1
                  {
                    OFFSET 5.6954 0.21 2.1184
                    CHANNELS 3 Zrotation Xrotation Yrotation
                    JOINT lMid2
                    {
                      OFFSET 3.9766 -1.54 2.3863
                      CHANNELS 3 Zrotation Xrotation Yrotation
                      JOINT lMid2_End
                      {
                        OFFSET 1.4042 -1.926 1.125
                        CHANNELS 3 Zrotation Xrotation Yrotation
                        End Site
                        {
                          OFFSET 0.014 -0.0193 0.0113
                        }
                      }
                    }
                  }
                }
                JOINT lCarpal2
                {
                  OFFSET 2.0956 0.66 -0.3894
                  CHANNELS 3 Zrotation Xrotation Yrotation
                  JOINT lRing1
                  {
                    OFFSET 5.0395 -0.09 2.4971
                    CHANNELS 3 Zrotation Xrotation Yrotation
                    JOINT lRing2
                    {
                      OFFSET 3.7921 -1.552 1.4806
                      CHANNELS 3 Zrotation Xrotation Yrotation
                      JOINT lRing2_End
                      {
                        OFFSET 1.4655 -1.808 0.9609
                        CHANNELS 3 Zrotation Xrotation Yrotation
                        End Site
                        {
                          OFFSET 0.0147 -0.0181 0.0096
                        }
                      }
                    }
                  }
                  JOINT lPinky1
                  {
                    OFFSET 4.9141 -1.269 0.3591
                    CHANNELS 3 Zrotation Xrotation Yrotation
                    JOINT lPinky2
                    {
                      OFFSET 3.1477 -1.685 0.8462
                      CHANNELS 3 Zrotation Xrotation Yrotation
                      JOINT lPinky2_End
                      {
                        OFFSET 0.8055 -1.585 0.7955
                        CHANNELS 3 Zrotation Xrotation Yrotation
                        End Site
                        {
                          OFFSET 0.0081 -0.0158 0.008
                        }
                      }
                    }
                  }
                }
              }
            }
          }
        }
        JOINT rCollar
        {
          OFFSET -1.7069 20.075 5.0056
          CHANNELS 3 Zrotation Xrotation Yrotation
          JOINT rShldr
          {
            OFFSET -13.6458 -0.047 -4.849
            CHANNELS 3 Zrotation Xrotation Yrotation
            JOINT rForeArm
            {
              OFFSET -28.3255 -0.9759 2.2888
              CHANNELS 3 Zrotation Xrotation Yrotation
              JOINT rHand
              {
                OFFSET -22.1583 -0.53 10.8316
                CHANNELS 3 Zrotation Xrotation Yrotation
                JOINT rThumb1
                {
                  OFFSET -0.786 0.112 2.5817
                  CHANNELS 3 Zrotation Xrotation Yrotation
                  JOINT rThumb2
                  {
                    OFFSET -0.3601 -0.878 4.2331
                    CHANNELS 3 Zrotation Xrotation Yrotation
                    JOINT rThumb2_End
                    {
                      OFFSET -1.8127 -1.216 2.2227
                      CHANNELS 3 Zrotation Xrotation Yrotation
                      End Site
                      {
                        OFFSET -0.0181 -0.0122 0.0222
                      }
                    }
                  }
                }
                JOINT rCarpal1
                {
                  OFFSET -0.9571 1.114 1.7695
                  CHANNELS 3 Zrotation Xrotation Yrotation
                  JOINT rIndex1
                  {
                    OFFSET -4.1246 0.487 4.1451
                    CHANNELS 3 Zrotation Xrotation Yrotation
                    JOINT rIndex2
                    {
                      OFFSET -3.4052 -1.454 2.7682
                      CHANNELS 3 Zrotation Xrotation Yrotation
                      JOINT rIndex2_End
                      {
                        OFFSET -1.4531 -1.795 1.2713
                        CHANNELS 3 Zrotation Xrotation Yrotation
                        End Site
                        {
                          OFFSET -0.0145 -0.018 0.0127
                        }
                      }
                    }
                  }
                  JOINT rMid1
                  {
                    OFFSET -5.6954 0.21 2.1184
                    CHANNELS 3 Zrotation Xrotation Yrotation
                    JOINT rMid2
                    {
                      OFFSET -3.9766 -1.54 2.3863
                      CHANNELS 3 Zrotation Xrotation Yrotation
                      JOINT rMid2_End
                      {
                        OFFSET -1.4042 -1.926 1.125
                        CHANNELS 3 Zrotation Xrotation Yrotation
                        End Site
                        {
                          OFFSET -0.014 -0.0193 0.0113
                        }
                      }
                    }
                  }
                }
                JOINT rCarpal2
                {
                  OFFSET -2.0956 0.66 -0.3894
                  CHANNELS 3 Zrotation Xrotation Yrotation
                  JOINT rRing1
                  {
                    OFFSET -5.0395 -0.09 2.4971
                    CHANNELS 3 Zrotation Xrotation Yrotation
                    JOINT rRing2
                    {
                      OFFSET -3.7921 -1.552 1.4806
                      CHANNELS 3 Zrotation Xrotation Yrotation
                      JOINT rRing2_End
                      {
                        OFFSET -1.4655 -1.808 0.9609
                        CHANNELS 3 Zrotation Xrotation Yrotation
                        End Site
                        {
                          OFFSET -0.0147 -0.0181 0.0096
                        }
                      }
                    }
                  }
                  JOINT rPinky1
                  {
                    OFFSET -4.9141 -1.269 0.3592
                    CHANNELS 3 Zrotation Xrotation Yrotation
                    JOINT rPinky2
                    {
                      OFFSET -3.1477 -1.685 0.8462
                      CHANNELS 3 Zrotation Xrotation Yrotation
                      JOINT rPinky2_End
                      {
                        OFFSET -0.8055 -1.585 0.7955
                        CHANNELS 3 Zrotation Xrotation Yrotation
                        End Site
                        {
                          OFFSET -0.0081 -0.0158 0.008
                        }
                      }
                    }
                  }
                }
              }
            }
          }
        }
      }
    }
  }
  JOINT lThigh
  {
    OFFSET 8.367 -8.2066 0.5982
    CHANNELS 3 Zrotation Xrotation Yrotation
    JOINT lShin
    {
      OFFSET 2.1923 -43.463 -0.4932
      CHANNELS 3 Zrotation Xrotation Yrotation
      JOINT lFoot
      {
        OFFSET 0.7333 -45.8593 -2.6451
        CHANNELS 3 Zrotation Xrotation Yrotation
        End Site
        {
          OFFSET 2.6618 -4.2699 12.3931
        }
      }
    }
  }
  JOINT rThigh
  {
    OFFSET -8.367 -8.2066 0.5982
    CHANNELS 3 Zrotation Xrotation Yrotation
    JOINT rShin
    {
      OFFSET -2.1923 -43.463 -0.4931
      CHANNELS 3 Zrotation Xrotation Yrotation
      JOINT rFoot
      {
        OFFSET -0.7333 -45.8593 -2.6451
        CHANNELS 3 Zrotation Xrotation Yrotation
        End Site
        {
          OFFSET -2.6618 -4.2699 12.3931
        }
      }
    }
  }
}
MOTION
Frames:	4
Frame Time:	0.0333333
0 91.7903 2.51682 0 0 -0 0 0 -0 0 0 -0 0 0 -0 0 0 -0 0 0 -0 0 0 -0 1.66051 0.0835086 5.75766 -0.0175111 0.895433 15.7816 7.95139e-016 -1.98785e-016 -0 5.46658e-016 -3.97569e-016 -0 5.96354e-016 0 -0 3.97569e-016 1.98785e-016 9.54166e-015 1.49089e-016 -3.97569e-016 -0 6.4605e-016 0 3.18055e-015 5.96354e-016 0 3.18055e-015 8.94531e-016 -1.98785e-016 6.36111e-015 6.4605e-016 0 3.18055e-015 5.96354e-016 0 3.18055e-015 8.94531e-016 -1.98785e-016 6.36111e-015 1.49089e-016 -3.97569e-016 -0 6.4605e-016 0 3.18055e-015 5.96354e-016 0 3.18055e-015 8.94531e-016 -1.98785e-016 6.36111e-015 6.4605e-016 0 3.18055e-015 5.96354e-016 0 3.18055e-015 8.94531e-016 -1.98785e-016 6.36111e-015 0 0 -0 -1.4496 0.0636048 -5.0245 -1.74811 1.20616 -16.8394 -1.19271e-015 1.98785e-016 -3.18055e-015 -3.97569e-016 1.98785e-016 -3.18055e-015 -2.98177e-016 1.98785e-016 -3.18055e-015 -2.98177e-016 3.97569e-016 -0 4.96962e-016 0 -6.36111e-015 -9.93923e-017 3.97569e-016 -0 -8.94531e-016 5.96354e-016 -0 -3.97569e-016 3.97569e-016 -0 -9.93923e-017 3.97569e-016 -0 -8.94531e-016 5.96354e-016 -0 -3.97569e-016 3.97569e-016 -0 4.96962e-016 0 -6.36111e-015 -9.93923e-017 3.97569e-016 -0 -8.94531e-016 5.96354e-016 -0 -3.97569e-016 3.97569e-016 -0 -9.93923e-017 3.97569e-016 -0 -8.94531e-016 5.96354e-016 -0 -3.97569e-016 3.97569e-016 -0 -4.66111 -0.998717 0.12318 0.00986924 1.54847 0.176523 4.65186 -0.572283 -0.254274 4.66111 -0.998765 -0.123176 -0.00986867 1.54869 -0.176537 -4.65186 -0.572453 0.25427 
42.3082 28.4423 29.0763 179.997 58.9865 -1.00007e-011 -0.0261179 8.04518 -0.0848085 -0.0406799 16.0904 -0.168402 -0.0406798 16.0904 -0.168402 6.23959e-006 13.9963 -1.4426e-006 3.49043e-008 0.120645 -7.0346e-008 -17.4702 -1.22933 -1.9139 -42.9333 55.1859 6.60967 16.6313 32.8835 -4.95881 -0.370149 -5.59503 -1.26065 -2.20695e-032 3.97569e-016 3.18055e-015 -2.31238e-007 1.51143e-007 2.02642e-008 6.62086e-032 -1.19271e-015 3.18055e-015 7.95139e-016 3.97569e-016 3.18055e-015 1.19271e-015 7.95139e-016 1.90833e-014 -2.31238e-007 1.51143e-007 2.02642e-008 -0 -1.59028e-015 -0 1.19271e-015 7.95139e-016 1.90833e-014 -2.31238e-007 1.51143e-007 2.02642e-008 -0 -1.59028e-015 -0 7.95139e-016 3.97569e-016 3.18055e-015 1.19271e-015 7.95139e-016 1.90833e-014 -2.31238e-007 1.51143e-007 2.02642e-008 -0 -1.59028e-015 -0 1.19271e-015 7.95139e-016 1.90833e-014 -2.31238e-007 1.51143e-007 2.02642e-008 -0 -1.59028e-015 -0 11.0049 -1.90557 1.24652 51.8691 55.0293 -6.04926 -19.0918 32.1649 9.46755 0.110052 -3.13182 -4.94048 7.95139e-016 1.19271e-015 -0 1.59028e-015 7.95139e-016 3.18055e-015 7.95139e-016 7.95139e-016 -0 7.95139e-016 -3.97569e-016 -0 2.38542e-015 0 3.18055e-015 7.95139e-016 3.97569e-016 -0 2.38542e-015 3.97569e-016 6.36111e-015 2.38542e-015 0 3.18055e-015 7.95139e-016 3.97569e-016 -0 2.38542e-015 3.97569e-016 6.36111e-015 7.95139e-016 -3.97569e-016 -0 2.38542e-015 0 3.18055e-015 7.95139e-016 3.97569e-016 -0 2.38542e-015 3.97569e-016 6.36111e-015 2.38542e-015 0 3.18055e-015 7.95139e-016 3.97569e-016 -0 2.38542e-015 3.97569e-016 6.36111e-015 56.0113 -74.9629 86.8529 1.58504 32.8016 -41.5235 22.0141 1.74837 4.5157 -56.0715 -74.9371 -86.9192 -1.581 32.8114 41.5088 -22.0324 1.73472 -4.52531 
42.3148 28.4435 29.0715 179.997 58.9947 3.2456e-011 -0.0265176 8.16663 -0.084656 -0.0413386 16.3333 -0.168052 -0.0413388 16.3333 -0.168052 5.27091e-006 13.8797 -1.41768e-006 1.19142e-007 0.12034 -5.53216e-008 -16.8391 -1.56306 -2.17891 -43.3927 55.1781 6.58325 16.6313 32.8835 -4.95882 -0.346037 -5.89919 -1.08262 3.97569e-016 0 -0 1.19271e-015 3.97569e-016 -0 1.59028e-015 3.97569e-016 6.36111e-015 -3.97569e-016 3.97569e-016 -0 1.19271e-015 0 9.54166e-015 1.19271e-015 3.97569e-016 6.36111e-015 7.95139e-016 -3.97569e-016 3.18055e-015 1.19271e-015 0 9.54166e-015 1.19271e-015 3.97569e-016 6.36111e-015 7.95139e-016 -3.97569e-016 3.18055e-015 -3.97569e-016 3.97569e-016 -0 1.19271e-015 0 9.54166e-015 1.19271e-015 3.97569e-016 6.36111e-015 7.95139e-016 -3.97569e-016 3.18055e-015 1.19271e-015 0 9.54166e-015 1.19271e-015 3.97569e-016 6.36111e-015 7.95139e-016 -3.97569e-016 3.18055e-015 10.4447 -2.30777 1.49503 52.2777 55.0272 -6.03917 -19.0918 32.1649 9.46753 0.106445 -3.41775 -5.11558 4.41391e-032 3.97569e-016 -6.36111e-015 7.95139e-016 3.97569e-016 -9.54166e-015 4.41391e-032 7.95139e-016 -3.18055e-015 4.41391e-032 -7.95139e-016 3.18055e-015 3.97569e-015 3.97569e-016 9.54166e-015 2.64834e-031 1.59028e-015 -9.54166e-015 1.59028e-015 1.59028e-015 -6.36111e-015 3.97569e-015 3.97569e-016 9.54166e-015 2.64834e-031 1.59028e-015 -9.54166e-015 1.59028e-015 1.59028e-015 -6.36111e-015 4.41391e-032 -7.95139e-016 3.18055e-015 3.97569e-015 3.97569e-016 9.54166e-015 2.64834e-031 1.59028e-015 -9.54166e-015 1.59028e-015 1.59028e-015 -6.36111e-015 3.97569e-015 3.97569e-016 9.54166e-015 2.64834e-031 1.59028e-015 -9.54166e-015 1.59028e-015 1.59028e-015 -6.36111e-015 55.7554 -75.1082 86.6132 1.58386 32.7895 -41.533 22.1844 1.75745 4.59888 -55.5981 -75.1782 -86.4779 -1.57968 32.7983 41.5207 -22.3139 1.75845 -4.65287 
42.3213 28.444 29.0657 179.997 58.9947 3.2456e-011 -0.0269184 8.28838 -0.0845007 -0.0420012 16.5768 -0.167696 -0.0420013 16.5768 -0.167696 2.92695e-006 13.7633 -6.74571e-007 2.56494e-008 0.120051 6.23023e-008 -16.2089 -1.8999 -2.44045 -43.852 55.1705 6.55672 16.6313 32.8835 -4.95879 -0.320957 -6.20333 -0.90434 0 0 -3.18055e-015 1.98785e-015 -1.19271e-015 6.36111e-015 1.19271e-015 3.97569e-016 1.27222e-014 7.95139e-016 3.97569e-016 -3.18055e-015 3.18055e-015 3.97569e-016 2.22639e-014 -4.41391e-032 3.97569e-016 6.36111e-015 -1.19271e-015 -3.97569e-016 -6.36111e-015 3.18055e-015 3.97569e-016 2.22639e-014 -4.41391e-032 3.97569e-016 6.36111e-015 -1.19271e-015 -3.97569e-016 -6.36111e-015 7.95139e-016 3.97569e-016 -3.18055e-015 3.18055e-015 3.97569e-016 2.22639e-014 -4.41391e-032 3.97569e-016 6.36111e-015 -1.19271e-015 -3.97569e-016 -6.36111e-015 3.18055e-015 3.97569e-016 2.22639e-014 -4.41391e-032 3.97569e-016 6.36111e-015 -1.19271e-015 -3.97569e-016 -6.36111e-015 9.88578 -2.71263 1.73982 52.6862 55.0251 -6.02909 -19.0918 32.1649 9.46754 0.101961 -3.70371 -5.29078 -1.90833e-014 2.0276e-014 -1.27222e-014 -2.21756e-007 3.31427e-007 -6.13243e-006 -1.59028e-015 -2.78299e-015 -3.18055e-015 -1.59028e-015 1.19271e-015 -1.27222e-014 -1.98785e-014 2.06736e-014 -1.27222e-014 -2.21756e-007 3.31427e-007 -6.13243e-006 -1.59028e-015 -2.78299e-015 -3.18055e-015 -1.98785e-014 2.06736e-014 -1.27222e-014 -2.21756e-007 3.31427e-007 -6.13243e-006 -1.59028e-015 -2.78299e-015 -3.18055e-015 -1.59028e-015 1.19271e-015 -1.27222e-014 -1.98785e-014 2.06736e-014 -1.27222e-014 -2.21756e-007 3.31427e-007 -6.13243e-006 -1.59028e-015 -2.78299e-015 -3.18055e-015 -1.98785e-014 2.06736e-014 -1.27222e-014 -2.21756e-007 3.31427e-007 -6.13243e-006 -1.59028e-015 -2.78299e-015 -3.18055e-015 55.4958 -75.2533 86.3698 1.58272 32.7779 -41.5425 22.3547 1.76663 4.68204 -55.1109 -75.4184 -86.0227 -1.57836 32.7858 41.5324 -22.5955 1.78272 -4.78031 
